<svg xmlns="http://www.w3.org/2000/svg" viewBox="0 0 240 60" fill="none">
  <!-- Kidrove Stylized Rocket Icon -->
  <g transform="translate(10, 5)">
    <!-- Propulsion flame -->
    <path d="M12 40 C7 42 12 50 12 50 C12 50 17 42 12 40 Z" fill="#FF885E" />
    <path d="M12 40 C9 41 12 47 12 47 C12 47 15 41 12 40 Z" fill="#FFB800" />
    
    <!-- Rocket body -->
    <path d="M12 5 C18 15 22 25 22 35 C22 39 18 42 12 42 C6 42 2 39 2 35 C2 25 6 15 12 5 Z" fill="#4F46E5" />
    
    <!-- Rocket wings -->
    <path d="M2 30 C-2 32 -2 38 2 40 C4 40.5 5 38 4 35 Z" fill="#FF6B35" />
    <path d="M22 30 C26 32 26 38 22 40 C20 40.5 19 38 20 35 Z" fill="#FF6B35" />
    
    <!-- Window -->
    <circle cx="12" cy="20" r="4" fill="#E0F2FE" stroke="#0284C7" stroke-width="1.5" />
    <circle cx="11" cy="19" r="1.5" fill="white" />
  </g>
  
  <!-- Text Logo -->
  <text x="45" y="32" font-family="'Plus Jakarta Sans', 'Inter', sans-serif" font-size="24" font-weight="800" fill="#0F172A">
    Kid<tspan fill="#FF6B35">rove</tspan>
  </text>
  
  <!-- Subtext tag -->
  <rect x="45" y="38" width="55" height="12" rx="3" fill="#EEF2FF" />
  <text x="49" y="47" font-family="'Plus Jakarta Sans', 'Inter', sans-serif" font-size="8" font-weight="700" fill="#6366F1" letter-spacing="0.5">
    WORKSHOPS
  </text>
</svg>
